<svg width="16" height="17" viewBox="0 0 16 17" fill="none" xmlns="http://www.w3.org/2000/svg">
<path fill-rule="evenodd" clip-rule="evenodd" d="M3.6129 4.25524C3.6129 1.90514 5.57707 0 8 0C10.4229 0 12.3871 1.90514 12.3871 4.25524C12.3871 6.60535 10.4229 8.51049 8 8.51049C5.57707 8.51049 3.6129 6.60535 3.6129 4.25524ZM8 1.50185C6.43222 1.50185 5.16129 2.73459 5.16129 4.25524C5.16129 5.7759 6.43222 7.00864 8 7.00864C9.56778 7.00864 10.8387 5.7759 10.8387 4.25524C10.8387 2.73459 9.56778 1.50185 8 1.50185Z" fill="black"/>
<path fill-rule="evenodd" clip-rule="evenodd" d="M3.87097 11.5142C2.58824 11.5142 1.54839 12.5228 1.54839 13.767V14.9567C1.54839 14.9748 1.56192 14.9903 1.58036 14.9932C5.83197 15.6665 10.168 15.6665 14.4196 14.9932C14.4381 14.9903 14.4516 14.9748 14.4516 14.9567V13.767C14.4516 12.5228 13.4118 11.5142 12.129 11.5142H11.7772C11.75 11.5142 11.7229 11.5184 11.6971 11.5265L10.8036 11.8095C8.98187 12.3865 7.01813 12.3865 5.19637 11.8095L4.30294 11.5265C4.27707 11.5184 4.25004 11.5142 4.22283 11.5142H3.87097ZM0 13.767C0 11.6933 1.73309 10.0123 3.87097 10.0123H4.22283C4.41328 10.0123 4.60252 10.0415 4.78356 10.0989L5.67699 10.3818C7.18645 10.8599 8.81355 10.8599 10.323 10.3818L11.2164 10.0989C11.3975 10.0415 11.5867 10.0123 11.7772 10.0123H12.129C14.2669 10.0123 16 11.6933 16 13.767V14.9567C16 15.7109 15.4365 16.3539 14.6691 16.4754C10.2523 17.1749 5.74771 17.1749 1.33086 16.4754C0.563493 16.3539 0 15.7109 0 14.9567V13.767Z" fill="black"/>
</svg>
