<svg width="24" height="24" viewBox="0 0 24 24" fill="none" xmlns="http://www.w3.org/2000/svg">
<path d="M7.29289 7.29288C7.68342 6.90236 8.31658 6.90236 8.70711 7.29288L12 10.5858L15.2929 7.29289C15.6834 6.90237 16.3166 6.90237 16.7071 7.29289C17.0976 7.68342 17.0976 8.31658 16.7071 8.70711L13.4142 12L16.7071 15.2929C17.0976 15.6834 17.0976 16.3166 16.7071 16.7071C16.3166 17.0976 15.6834 17.0976 15.2929 16.7071L12 13.4142L8.70712 16.7071C8.31659 17.0976 7.68343 17.0976 7.2929 16.7071C6.90238 16.3166 6.90238 15.6834 7.2929 15.2929L10.5858 12L7.29289 8.7071C6.90237 8.31657 6.90237 7.68341 7.29289 7.29288Z" fill="#392A3F"/>
<path fill-rule="evenodd" clip-rule="evenodd" d="M5.75565 1.02501C9.87238 0.564905 14.1276 0.564905 18.2443 1.02501C20.6795 1.29718 22.646 3.21537 22.9325 5.66465C23.4248 9.87388 23.4248 14.1261 22.9325 18.3354C22.646 20.7846 20.6795 22.7028 18.2443 22.975C14.1276 23.4351 9.87239 23.4351 5.75564 22.975C3.32047 22.7028 1.35394 20.7846 1.06747 18.3354C0.575165 14.1261 0.575165 9.87388 1.06747 5.66465C1.35394 3.21537 3.32047 1.29718 5.75565 1.02501ZM18.0222 3.01264C14.0531 2.56903 9.94689 2.56903 5.97779 3.01264C4.45188 3.18318 3.23048 4.38751 3.05393 5.89698C2.57968 9.95185 2.57968 14.0482 3.05393 18.103C3.23048 19.6125 4.45188 20.8168 5.97779 20.9874C9.94689 21.431 14.0531 21.431 18.0222 20.9874C19.5481 20.8168 20.7695 19.6125 20.946 18.103C21.4203 14.0482 21.4203 9.95185 20.946 5.89698C20.7695 4.38751 19.5481 3.18318 18.0222 3.01264Z" fill="#392A3F"/>
</svg>
