<svg width="24" height="18" viewBox="0 0 24 18" fill="none" xmlns="http://www.w3.org/2000/svg">
<path fill-rule="evenodd" clip-rule="evenodd" d="M24 8.90323C24 8.26186 23.4801 7.74194 22.8387 7.74194H1.16129C0.519927 7.74194 0 8.26186 0 8.90323C0 9.54459 0.519927 10.0645 1.16129 10.0645H22.8387C23.4801 10.0645 24 9.54459 24 8.90323Z" fill="black"/>
<path fill-rule="evenodd" clip-rule="evenodd" d="M24 1.16129C24 0.519927 23.4801 0 22.8387 0H1.16129C0.519927 0 0 0.519927 0 1.16129C0 1.80265 0.519927 2.32258 1.16129 2.32258H22.8387C23.4801 2.32258 24 1.80265 24 1.16129Z" fill="black"/>
<path fill-rule="evenodd" clip-rule="evenodd" d="M24 16.6452C24 16.0038 23.4801 15.4839 22.8387 15.4839H1.16129C0.519927 15.4839 0 16.0038 0 16.6452C0 17.2865 0.519927 17.8065 1.16129 17.8065H22.8387C23.4801 17.8065 24 17.2865 24 16.6452Z" fill="black"/>
</svg>
