<svg width="1340" height="1069" viewBox="0 0 1340 1069" fill="none" xmlns="http://www.w3.org/2000/svg">
<path d="M610.165 1068C605.412 1008.14 616.857 894.731 700.667 919.996C805.43 951.579 842.728 877.887 842.728 825.869C842.728 773.851 879.478 699.539 946.943 699.539V699.539C1026.27 699.539 1119.89 691.913 1146.2 617.082C1154.38 593.805 1159.76 570.502 1159.76 549.678C1159.76 467.936 1283.72 361.423 1322.66 405.39C1361.61 449.358 1483.37 379.381 1462.53 297.639" stroke="#502D1F" stroke-width="24"/>
<path d="M24.0037 1063.05C-8.54049 975.73 -19.7664 799.117 195.683 791.19C385.481 784.207 449.879 619.083 462.523 508.173C465.632 480.906 470.033 453.311 484.563 430.03C521.407 370.993 593.886 295.162 695.365 295.162C851.138 295.162 961.386 50.224 961.386 9.06286C961.386 -104.881 1024.46 -157.312 1083.15 -173" stroke="#CCABD8" stroke-width="12"/>
<path d="M564.167 1067.62C558.527 1009 568.25 899.244 647.157 918.254C745.404 943.095 783.76 871.523 792.047 823.201C808.62 774.575 846.685 689.695 908.961 681.629C959.738 679.429 1014.73 702.044 1037.98 712.252C1065.44 675.587 1118.34 590.464 1123.13 530.1C1135.11 454.645 1258.02 337.484 1293.96 374.904C1329.91 406.724 1447.16 338.097 1432.44 261.436" stroke="#5A372D" stroke-width="23.0769"/>
<path d="M518.259 1067.24C511.733 1009.87 519.734 903.758 593.736 916.512C685.468 934.611 724.882 865.159 741.455 820.534C774.601 775.299 813.984 679.85 871.07 663.718C918.651 659.319 971.265 676.476 995.815 682.855C1024.23 646.267 1077 565.855 1086.59 510.522C1110.55 441.355 1232.4 313.546 1265.35 344.417C1298.31 364.09 1411.04 296.813 1402.44 225.233" stroke="#63403B" stroke-width="22.1538"/>
<path d="M472.45 1066.86C465.038 1010.73 471.317 908.271 540.415 914.77C625.631 926.127 666.104 858.794 690.963 817.866C740.682 776.023 781.381 670.005 833.277 645.807C877.663 639.209 927.897 650.908 953.753 653.458C983.124 616.947 1035.77 541.247 1050.14 490.944C1086.09 428.065 1206.89 289.608 1236.84 313.93C1266.8 321.456 1375.02 255.529 1372.53 189.03" stroke="#6D4A4A" stroke-width="21.2308"/>
<path d="M426.752 1066.48C418.454 1011.6 423.01 912.784 487.204 913.027C565.904 917.643 607.435 852.43 640.581 815.198C706.873 776.747 748.888 660.161 795.595 627.896C836.786 619.099 884.64 625.339 911.801 624.061C942.126 587.628 994.641 516.638 1013.81 471.365C1061.74 414.774 1181.48 265.669 1208.45 283.443C1235.41 278.823 1339.11 214.245 1342.74 152.827" stroke="#765458" stroke-width="20.3077"/>
<path d="M381.176 1066.09C371.993 1012.46 374.827 917.298 434.117 911.285C506.301 909.159 548.89 846.066 590.323 812.531C673.188 777.471 716.519 650.316 758.036 609.985C796.032 598.989 841.507 599.771 869.972 594.664C901.251 558.308 953.639 492.03 977.604 451.787C1037.52 401.484 1156.2 241.731 1180.17 252.957C1204.13 236.189 1303.33 172.961 1313.07 116.624" stroke="#805D66" stroke-width="19.3846"/>
<path d="M335.74 1065.71C325.67 1013.33 326.783 921.811 381.168 909.543C446.836 900.676 490.484 839.702 540.203 809.863C639.642 778.195 684.289 640.471 720.617 592.074C755.417 578.879 798.512 574.203 828.283 565.267C860.515 528.989 912.777 467.421 941.535 432.209C1013.43 388.194 1131.06 217.793 1152.03 222.47C1173 193.555 1267.68 131.677 1283.54 80.4209" stroke="#896774" stroke-width="18.4615"/>
<path d="M290.463 1065.33C279.507 1014.2 278.897 926.325 328.378 907.801C387.53 892.192 432.237 833.338 490.242 807.196C606.254 778.919 652.218 630.627 683.356 574.163C714.96 558.769 755.676 548.634 786.752 535.87C819.937 499.669 872.073 442.813 905.624 412.631C989.502 374.904 1106.08 193.854 1124.05 191.983C1142.03 150.921 1232.19 90.3926 1254.17 44.2179" stroke="#937183" stroke-width="17.5385"/>
<path d="M245.367 1064.95C233.525 1015.06 231.193 930.838 275.771 906.058C328.407 883.708 374.171 826.974 440.463 804.528C573.048 779.643 620.329 620.782 646.277 556.252C674.686 538.658 713.022 523.066 745.403 506.473C779.542 470.349 831.551 418.204 869.895 393.053C965.755 361.613 1081.28 169.916 1096.26 161.496C1111.23 108.288 1196.88 49.1084 1224.98 8.01489" stroke="#9C7B91" stroke-width="16.6154"/>
<path d="M200.483 1064.57C187.755 1015.93 183.701 935.352 223.375 904.316C269.495 875.224 316.317 820.61 390.896 801.86C540.054 780.367 588.651 610.937 609.409 538.341C634.623 518.548 670.579 497.497 704.266 477.076C739.358 441.029 791.24 393.596 834.378 373.474C942.221 348.323 1056.69 145.977 1068.67 131.01C1080.65 65.6538 1161.79 7.82433 1196.01 -28.1881" stroke="#A6849F" stroke-width="15.6923"/>
<path d="M155.849 1064.19C142.235 1016.79 136.459 939.865 171.228 902.574C210.832 866.74 258.713 814.246 341.578 799.193C507.309 781.091 557.222 601.093 572.791 520.43C594.81 498.438 628.386 471.929 663.378 447.679C699.424 411.71 751.18 368.987 799.11 353.896C918.935 335.033 1032.35 122.039 1041.33 100.523C1050.32 23.02 1126.94 -33.4598 1167.28 -64.3911" stroke="#AF8EAD" stroke-width="14.7692"/>
<path d="M111.512 1063.81C97.0116 1017.66 89.5134 944.379 119.378 900.832C152.467 858.256 201.406 807.882 292.558 796.525C474.862 781.815 526.091 591.248 536.471 502.519C555.294 478.328 586.491 446.361 622.787 418.282C659.787 382.39 711.416 344.379 764.139 334.318C895.948 321.742 1008.31 98.1007 1014.3 70.0364C1020.29 -19.6136 1092.39 -74.7438 1138.85 -100.594" stroke="#B998BC" stroke-width="13.8462"/>
<path d="M67.5349 1063.43C52.1489 1018.52 42.9285 948.892 67.8894 899.089C94.462 849.772 144.46 801.517 243.898 793.858C442.775 782.539 495.321 581.403 500.511 484.608C516.138 458.218 544.956 420.792 582.557 388.884C620.511 353.07 672.013 319.77 729.529 314.74C873.32 308.452 984.623 74.1622 987.619 39.5495C990.614 -62.2476 1058.21 -116.028 1110.78 -136.797" stroke="#C2A1CA" stroke-width="12.9231"/>
</svg>
