<svg width="1332" height="1024" viewBox="0 0 1332 1024" fill="none" xmlns="http://www.w3.org/2000/svg">
<path d="M606.253 1024C601.5 964.138 612.945 850.731 696.756 875.996C801.519 907.579 838.816 833.887 838.816 781.869C838.816 729.851 875.566 655.539 943.031 655.539V655.539C1022.35 655.539 1115.97 647.913 1142.29 573.082C1150.47 549.805 1155.85 526.502 1155.85 505.678C1155.85 423.936 1279.81 317.423 1318.75 361.39C1357.7 405.358 1479.46 335.381 1458.62 253.639" stroke="#CCABD8" stroke-width="3"/>
<path d="M20.0918 1019.05C-12.4524 931.73 -23.6783 755.117 191.772 747.19C381.569 740.207 445.967 575.083 458.611 464.173C461.72 436.906 466.121 409.311 480.651 386.03C517.495 326.993 589.974 251.162 691.453 251.162C847.226 251.162 957.474 6.22396 957.474 -34.9371C957.474 -148.881 1020.55 -201.312 1079.24 -217" stroke="#E5C4F1" stroke-width="3"/>
<path d="M577.768 1023.76C572.466 964.674 582.845 853.525 663.62 874.918C764.349 902.327 802.302 829.947 807.432 780.217C817.691 730.299 855.256 649.445 919.508 644.452C971.502 643.09 1027.4 667.785 1050.15 679.451C1077.25 642.756 1130.19 555.838 1133.16 493.558C1140.58 415.708 1263.89 302.604 1300.98 342.518C1338.06 378.966 1457.04 309.824 1439.98 231.227" stroke="#CDACD9" stroke-width="3"/>
<path d="M549.316 1023.53C543.466 965.209 552.779 856.319 630.517 873.839C727.213 897.075 765.821 826.007 776.081 778.566C796.6 730.747 834.979 643.351 896.019 633.364C946.035 630.641 1000.46 651.957 1024.02 661.253C1051.71 624.606 1104.57 540.605 1110.51 481.439C1125.34 407.481 1248 287.785 1283.23 323.645C1318.47 352.573 1434.64 284.268 1421.38 208.816" stroke="#CEADDA" stroke-width="3"/>
<path d="M520.9 1023.29C514.5 965.745 522.747 859.113 597.45 872.761C690.112 891.823 729.376 822.068 744.765 776.915C775.544 731.195 814.738 637.256 872.565 622.276C920.603 618.192 973.556 636.129 997.92 643.055C1026.2 606.456 1078.99 525.371 1087.89 469.319C1110.14 399.254 1232.14 272.966 1265.52 304.772C1298.9 326.181 1412.29 258.711 1402.81 186.405" stroke="#D0AFDC" stroke-width="3"/>
<path d="M492.52 1023.06C485.573 966.281 492.754 861.907 564.42 871.682C653.049 886.571 692.967 818.128 713.487 775.263C754.525 731.644 794.534 631.162 849.148 611.188C895.208 605.743 946.689 620.3 971.86 624.856C1000.73 588.305 1053.44 510.137 1065.31 457.199C1094.98 391.026 1216.33 258.147 1247.85 285.899C1279.38 299.788 1389.97 233.154 1384.27 163.993" stroke="#D1B0DD" stroke-width="3"/>
<path d="M464.181 1022.82C456.685 966.817 462.8 864.701 531.431 870.604C616.026 881.319 656.599 814.188 682.248 773.612C733.546 732.092 774.37 625.068 825.772 600.101C869.853 593.294 919.861 604.473 945.84 606.658C975.303 570.155 1027.93 494.903 1042.77 445.079C1079.86 382.799 1200.55 243.328 1230.22 267.027C1259.89 273.396 1367.69 207.597 1365.78 141.582" stroke="#D2B1DE" stroke-width="3"/>
<path d="M435.884 1022.58C427.84 967.352 432.889 867.495 498.484 869.525C579.045 876.067 620.274 810.249 651.052 771.961C712.609 732.54 754.248 618.974 802.438 589.013C844.541 580.845 893.076 588.644 919.863 588.46C949.916 552.005 1002.47 479.669 1020.27 432.959C1064.78 374.572 1184.82 228.509 1212.64 248.154C1240.45 247.004 1345.45 182.04 1347.33 119.171" stroke="#D3B2DF" stroke-width="3"/>
<path d="M407.634 1022.35C399.04 967.888 403.023 870.289 465.582 868.447C542.11 870.815 583.994 806.309 619.902 770.309C691.719 732.988 734.172 612.879 779.149 577.925C819.275 568.396 866.336 572.816 893.932 570.262C924.574 533.855 977.047 464.435 997.817 420.839C1049.74 366.344 1169.13 213.69 1195.09 229.281C1221.06 220.611 1323.26 156.483 1328.93 96.7592" stroke="#D4B3E0" stroke-width="3"/>
<path d="M379.432 1022.11C370.29 968.424 373.207 873.083 432.73 867.368C505.224 865.563 547.763 802.369 588.801 768.658C670.877 733.436 714.146 606.785 755.91 566.837C794.058 555.946 839.646 556.988 868.049 552.064C899.282 515.704 951.677 449.201 975.414 408.719C1034.76 358.117 1153.49 198.871 1177.6 210.408C1201.71 194.219 1301.12 130.927 1310.57 74.3477" stroke="#D6B5E2" stroke-width="3"/>
<path d="M351.283 1021.88C341.593 968.959 343.443 875.877 399.931 866.29C468.391 860.311 511.585 798.43 557.753 767.006C650.089 733.885 694.172 600.69 732.724 555.75C768.893 543.497 813.008 541.16 842.22 533.866C874.043 497.554 926.359 433.968 953.063 396.6C1019.82 349.89 1137.91 184.052 1160.16 191.536C1182.41 167.827 1279.03 105.37 1292.27 51.9364" stroke="#D7B6E3" stroke-width="3"/>
<path d="M323.191 1021.64C312.953 969.495 313.737 878.671 367.189 865.211C431.615 855.06 475.465 794.49 526.762 765.355C629.357 734.333 674.256 594.596 709.595 544.662C743.786 531.048 786.428 525.332 816.447 515.667C848.861 479.404 901.099 418.734 930.77 384.48C1004.95 341.662 1122.38 169.233 1142.78 172.663C1163.18 141.434 1257 79.813 1274.02 29.525" stroke="#D8B7E4" stroke-width="3"/>
<path d="M295.162 1021.4C284.375 970.031 284.093 881.465 334.509 864.132C394.902 849.808 439.406 790.55 495.834 763.704C608.688 734.781 654.402 588.502 686.528 533.574C718.741 518.599 759.91 509.504 790.737 497.469C823.741 461.253 875.901 403.5 908.539 372.36C990.134 333.435 1106.91 154.414 1125.46 153.79C1144 115.042 1235.03 54.2562 1255.84 7.11365" stroke="#D9B8E5" stroke-width="3"/>
<path d="M267.2 1021.17C255.865 970.567 254.517 884.259 301.897 863.054C358.256 844.556 403.416 786.611 464.973 762.053C588.087 735.23 634.615 582.408 663.529 522.487C693.764 506.15 733.46 493.676 765.095 479.271C798.689 443.103 850.77 388.266 886.376 360.24C975.389 325.208 1091.51 139.595 1108.2 134.918C1124.89 88.6499 1213.12 28.6995 1237.73 -15.2976" stroke="#DAB9E6" stroke-width="3"/>
<path d="M239.313 1020.93C227.429 971.102 225.015 887.053 269.359 861.975C321.685 839.304 367.499 782.671 434.186 760.401C567.56 735.678 614.903 576.313 640.604 511.399C668.861 493.701 707.084 477.848 739.527 461.073C773.711 424.953 825.714 373.032 864.287 348.12C960.718 316.98 1076.19 124.776 1091.03 116.045C1105.86 62.2575 1191.3 3.14261 1219.69 -37.709" stroke="#DBBAE7" stroke-width="3"/>
<path d="M211.507 1020.7C199.074 971.638 195.594 889.847 236.902 860.897C285.195 834.052 331.665 778.731 403.481 758.75C547.114 736.126 595.273 570.219 617.761 500.311C644.04 481.252 680.789 462.02 714.041 442.875C748.815 406.803 800.74 357.798 842.279 336C946.128 308.753 1060.95 109.957 1073.93 97.1719C1086.91 35.8651 1169.55 -22.4143 1201.73 -60.1205" stroke="#DDBCE9" stroke-width="3"/>
<path d="M183.791 1020.46C170.81 972.174 166.264 892.641 204.536 859.818C248.795 828.8 295.92 774.791 372.866 757.098C526.759 736.574 575.732 564.125 595.008 489.223C619.309 468.803 654.585 446.192 688.644 424.676C724.009 388.652 775.855 342.565 820.362 323.881C931.629 300.526 1045.79 95.1378 1056.92 78.2992C1068.05 9.47271 1147.89 -47.9712 1183.86 -82.5319" stroke="#DEBDEA" stroke-width="3"/>
<path d="M156.176 1020.23C142.646 972.709 137.034 895.435 172.27 858.74C212.495 823.548 260.275 770.852 342.352 755.447C506.504 737.022 556.292 558.03 572.355 478.136C594.678 456.353 628.481 430.364 663.348 406.478C699.303 370.502 751.071 327.331 798.545 311.761C917.229 292.298 1030.74 80.3189 1040.01 59.4266C1049.29 -16.9195 1126.34 -73.5279 1166.09 -104.943" stroke="#DFBEEB" stroke-width="3"/>
<path d="M128.672 1019.99C114.594 973.245 107.916 898.23 140.116 857.661C176.307 818.296 224.743 766.912 311.949 753.796C486.36 737.471 536.963 551.936 549.814 467.048C570.159 443.904 602.489 414.536 638.164 388.28C674.709 352.352 726.399 312.097 776.839 299.641C902.942 284.071 1015.8 65.5 1023.22 40.5538C1030.64 -43.3119 1104.89 -99.0847 1148.43 -127.354" stroke="#E0BFEC" stroke-width="3"/>
<path d="M101.294 1019.75C86.667 973.781 78.9227 901.024 108.087 856.583C140.245 813.044 189.335 762.973 281.671 752.144C466.342 737.919 517.76 545.842 527.398 455.96C545.765 431.455 576.622 398.708 613.105 370.082C650.24 334.202 701.852 296.863 755.26 287.521C888.779 275.844 1000.99 50.681 1006.55 21.6811C1012.11 -69.7042 1083.57 -124.642 1130.9 -149.766" stroke="#E1C0ED" stroke-width="3"/>
<path d="M74.057 1019.52C58.8819 974.317 50.0716 903.818 76.2001 855.504C104.324 807.792 154.07 759.033 251.535 750.493C446.466 738.367 498.699 539.747 505.124 444.873C521.513 419.006 550.896 382.88 588.187 351.884C625.913 316.051 677.446 281.629 733.821 275.401C874.759 267.616 986.313 35.862 990.022 2.80837C993.731 -96.0965 1062.4 -150.198 1113.51 -172.177" stroke="#E3C2EF" stroke-width="3"/>
<path d="M46.9818 1019.28C31.2582 974.852 21.3818 906.612 44.4744 854.426C68.5647 802.54 118.966 755.093 221.561 748.841C426.751 738.815 479.799 533.653 483.011 433.785C497.422 406.557 525.333 367.052 563.431 333.686C601.748 297.901 653.202 266.396 712.544 263.282C860.9 259.389 971.801 21.0429 973.655 -16.0644C975.51 -122.489 1041.38 -175.755 1096.28 -194.589" stroke="#E4C3F0" stroke-width="3"/>
</svg>
